<svg xmlns="http://www.w3.org/2000/svg" width="32" height="32" fill="none"><g stroke="#000" stroke-linecap="round" stroke-linejoin="round" stroke-width="1.5" clip-path="url(#a)"><path d="M4.3332 10.3333a5.6668 5.6668 0 1 0 11.3336 0 5.6668 5.6668 0 0 0-11.3335 0M.6667 27.3333a9.3332 9.3332 0 0 1 15.933-6.5996 9.333 9.333 0 0 1 2.7337 6.5996zM21.9999 27.3333h9.3334a7.334 7.334 0 0 0-3.521-6.2643 7.333 7.333 0 0 0-7.1817-.249M19.592 13.6667A4.3337 4.3337 0 0 0 23.9254 18a4.3333 4.3333 0 1 0-4.3334-4.3333"/></g><defs><clipPath id="a"><path fill="#fff" d="M0 0h32v32H0z"/></clipPath></defs></svg>