<svg xmlns="http://www.w3.org/2000/svg" fill="none" viewBox="0 0 32 32"><g stroke="#353434" stroke-linecap="round" stroke-linejoin="round" clip-path="url(#a)"><path stroke-width="1.5" d="m20.933 29.733-5.6 1.6 1.6-5.6 9.573-9.572a2.827 2.827 0 1 1 4 4l-9.573 9.572ZM25.305 17.363l4 4M16.933 25.735l4 4M12.666 24.667H2a1.334 1.334 0 0 1-1.333-1.334V4.667A1.333 1.333 0 0 1 2 3.333h24a1.333 1.333 0 0 1 1.333 1.334v8M7.333.668v6.667"/><path d="M20.666.668v6.667M.667 10.001h26.666"/></g><defs><clipPath id="a"><path fill="#fff" d="M0 0h32v32H0z"/></clipPath></defs></svg>