<svg xmlns="http://www.w3.org/2000/svg" fill="none" viewBox="0 0 60 60">
  <g stroke="#353434" stroke-linecap="round" stroke-linejoin="round" clip-path="url(#a)">
    <path stroke-width="1.5" d="m34.934 43.733-5.6 1.6 1.6-5.6 9.571-9.572a2.827 2.827 0 1 1 4 4l-9.572 9.572ZM39.305 31.363l4 4M30.933 39.735l4 4M26.666 38.667H16a1.334 1.334 0 0 1-1.334-1.334V18.667A1.333 1.333 0 0 1 16 17.333h24a1.333 1.333 0 0 1 1.333 1.334v8M21.334 14.668v6.667"/>
    <path d="M34.666 14.668v6.667M14.666 24.001h26.667"/>
  </g>
  <defs>
    <clipPath id="a">
      <path fill="#fff" d="M14 14h32v32H14z"/>
    </clipPath>
  </defs>
</svg>
