<svg xmlns="http://www.w3.org/2000/svg" width="32" height="32" fill="none"><g clip-path="url(#a)"><path stroke="#353434" stroke-linecap="round" stroke-linejoin="round" stroke-width="1.5" d="M14.6667 24.6667H2.0001a1.333 1.333 0 0 1-1.3334-1.3334V2A1.3333 1.3333 0 0 1 2.0001.6667h20A1.3334 1.3334 0 0 1 23.3334 2v13.3333m-2.4 14.4-5.6 1.6 1.6-5.6m4 4 9.572-9.572a2.8269 2.8269 0 0 0 .6131-3.0824 2.828 2.828 0 0 0-2.6131-1.746 2.83 2.83 0 0 0-2 .8284l-9.572 9.572m4 4-4-4m8.372-8.372 4 4M8.0001 6h9.3333m-12 4h12m-12 4h12m-12 4h8.6667"/></g><defs><clipPath id="a"><path fill="#fff" d="M0 0h32v32H0z"/></clipPath></defs></svg>