<svg xmlns="http://www.w3.org/2000/svg" width="32" height="32" fill="none"><g stroke="#353434" stroke-linecap="round" stroke-linejoin="round" stroke-width="1.5" clip-path="url(#a)"><path d="M11.5 8.5v-3a1 1 0 0 1 1-1h7a1 1 0 0 1 1 1v3M4.5 8.5h23M25 8.5l-1.812 17.209A1.9996 1.9996 0 0 1 21.2 27.5H10.8a2 2 0 0 1-1.989-1.791L7 8.5M16 12.875v10.9375M20.6875 12.875l-.5209 10.9375M11.3125 12.875l.5208 10.9375"/></g><defs><clipPath id="a"><path fill="#fff" d="M3.5 3.5h25v25h-25z"/></clipPath></defs></svg>