<svg width="32" height="32" viewBox="0 0 32 32" fill="none" xmlns="http://www.w3.org/2000/svg">
<g stroke="currentColor" stroke-linecap="round" stroke-linejoin="round" stroke-width="1.5">
<path d="M24.275 15.907l2.052 4.76h3.993a.98.98 0 01.69 1.71l-3.467 3.088 1.92 4.418a1.047 1.047 0 01-1.49 1.309l-4.64-2.615-4.64 2.615a1.047 1.047 0 01-1.49-1.31l1.92-4.417-3.466-3.088a.979.979 0 01.686-1.71h4l2.054-4.76a1.066 1.066 0 011.878 0zM11.333 20.667H2a1.333 1.333 0 01-1.333-1.334V6.552c0-.354.14-.693.39-.943L5.61 1.057c.25-.25.59-.39.943-.39h6.896c.354 0 .693.14.943.39l4.552 4.552c.25.25.39.59.39.943V14M19.213 6H.787M10 .667V6"/>
</g>
</svg>