<svg xmlns="http://www.w3.org/2000/svg" width="32" height="32" fill="none"><g stroke="#353434" stroke-linecap="round" stroke-linejoin="round" stroke-width="1.5" clip-path="url(#a)"><path d="m24.2746 15.9067 2.052 4.76h3.9933a.98.98 0 0 1 .946.613.98.98 0 0 1-.2567 1.0976l-3.4666 3.088 1.92 4.4174a1.047 1.047 0 0 1-.275 1.1889 1.046 1.046 0 0 1-1.2144.1204l-4.64-2.6147-4.64 2.6147a1.0467 1.0467 0 0 1-1.4893-1.3093l1.92-4.4174-3.4667-3.088a.9788.9788 0 0 1 .1156-1.5533.98.98 0 0 1 .5698-.1573h4l2.0546-4.76a1.0665 1.0665 0 0 1 1.8774 0M11.3334 20.6667H2.0001a1.333 1.333 0 0 1-1.3334-1.3334V6.552c.0001-.3536.1406-.6927.3907-.9427l4.552-4.552c.25-.25.589-.3906.9427-.3906h6.896c.3536 0 .6927.1406.9426.3906l4.552 4.552c.2501.25.3906.5891.3907.9427V14M19.2133 6H.7866M10 .6667V6"/></g><defs><clipPath id="a"><path fill="#fff" d="M0 0h32v32H0z"/></clipPath></defs></svg>