<svg xmlns="http://www.w3.org/2000/svg" fill="none" viewBox="0 0 60 60">
  <g stroke="#353434" stroke-linecap="round" stroke-linejoin="round" stroke-width="1.5" clip-path="url(#a)">
    <path d="m38.275 29.907 2.052 4.76h3.993a.98.98 0 0 1 .69 1.71l-3.467 3.088 1.92 4.418a1.047 1.047 0 0 1-1.49 1.309l-4.64-2.615-4.64 2.615a1.047 1.047 0 0 1-1.489-1.31l1.92-4.417-3.467-3.088a.979.979 0 0 1 .686-1.71h4l2.054-4.76a1.067 1.067 0 0 1 1.878 0ZM25.333 34.667H16a1.333 1.333 0 0 1-1.334-1.334V20.552c0-.354.141-.693.391-.943l4.552-4.552c.25-.25.59-.39.943-.39h6.896c.353 0 .692.14.942.39l4.553 4.552c.25.25.39.59.39.943V28M33.213 20H14.787M24 14.667V20"/>
  </g>
  <defs>
    <clipPath id="a">
      <path fill="#fff" d="M14 14h32v32H14z"/>
    </clipPath>
  </defs>
</svg>
