<svg xmlns="http://www.w3.org/2000/svg" width="24" height="24" fill="none"><path stroke="#353434" stroke-linecap="round" stroke-linejoin="round" stroke-width="1.5" d="M21 7.353v9.294a.6.6 0 0 1-.309.525l-8.4 4.666a.601.601 0 0 1-.582 0l-8.4-4.666A.6.6 0 0 1 3 16.647V7.353a.6.6 0 0 1 .309-.524l8.4-4.667a.6.6 0 0 1 .582 0l8.4 4.667a.6.6 0 0 1 .309.524"/><path stroke="#353434" stroke-linecap="round" stroke-linejoin="round" stroke-width="1.5" d="m3.528 7.294 8.1801 4.544a.6.6 0 0 0 .583 0l8.209-4.56M12.0001 21v-9"/></svg>