<svg width="25" height="26" viewBox="0 0 25 26" fill="none" xmlns="http://www.w3.org/2000/svg">
<path d="M23.75 24.75C23.0217 10.7505 1.47833 10.7505 0.75 24.75M9.18333 21.75H15.3167M12.25 18.75V24.75M16.85 5.25C16.85 6.44347 16.3654 7.58807 15.5027 8.43198C14.64 9.27589 13.47 9.75 12.25 9.75C11.03 9.75 9.85998 9.27589 8.99731 8.43198C8.13464 7.58807 7.65 6.44347 7.65 5.25C7.65 4.05653 8.13464 2.91193 8.99731 2.06802C9.85998 1.22411 11.03 0.75 12.25 0.75C13.47 0.75 14.64 1.22411 15.5027 2.06802C16.3654 2.91193 16.85 4.05653 16.85 5.25Z" stroke="#353434" stroke-width="1.5" stroke-linecap="round" stroke-linejoin="round"/>
</svg>
