<svg width="31" height="34" viewBox="0 0 31 34" fill="none" xmlns="http://www.w3.org/2000/svg">
<path d="M29.8019 9.24977V24.2502C29.802 24.4231 29.7558 24.5929 29.6681 24.7419C29.5804 24.8909 29.4544 25.0137 29.3032 25.0976L15.7456 32.6285C15.6019 32.7082 15.4403 32.75 15.276 32.75C15.1116 32.75 14.95 32.7082 14.8063 32.6285L1.24872 25.0976C1.09752 25.0137 0.971526 24.8909 0.883825 24.7419C0.796124 24.5929 0.749916 24.4231 0.75 24.2502V9.24977C0.750204 9.07714 0.796548 8.90771 0.884234 8.75901C0.97192 8.61031 1.09776 8.48776 1.24872 8.40403L14.8063 0.87152C14.95 0.791819 15.1116 0.75 15.276 0.75C15.4403 0.75 15.6019 0.791819 15.7456 0.87152L29.3032 8.40403C29.4541 8.48776 29.58 8.61031 29.6677 8.75901C29.7554 8.90771 29.8017 9.07714 29.8019 9.24977Z" stroke="#353434" stroke-width="1.5" stroke-linecap="round" stroke-linejoin="round"/>
<path d="M1.60205 9.15461L14.8045 16.4886C14.9484 16.5686 15.1104 16.6106 15.275 16.6106C15.4397 16.6106 15.6016 16.5686 15.7455 16.4886L28.9948 9.12878M15.2758 31.276V16.7501" stroke="#353434" stroke-width="1.5" stroke-linecap="round" stroke-linejoin="round"/>
</svg>
