<svg xmlns="http://www.w3.org/2000/svg" width="60" height="60" fill="none"><path stroke="#353434" stroke-linecap="round" stroke-linejoin="round" stroke-width="1.5" d="M44.526 22.4998v15.0004a.968.968 0 0 1-.4987.8474l-13.5576 7.5309a.968.968 0 0 1-.9393 0l-13.5576-7.5309a.969.969 0 0 1-.4987-.8474V22.4998a.968.968 0 0 1 .4987-.8458l13.5576-7.5325a.968.968 0 0 1 .9393 0l13.5576 7.5325a.969.969 0 0 1 .4987.8458"/><path stroke="#353434" stroke-linecap="round" stroke-linejoin="round" stroke-width="1.5" d="m16.3264 22.4046 13.2025 7.334a.968.968 0 0 0 .941 0l13.2492-7.3598M30.0002 44.526V30.0001"/></svg>