<svg xmlns="http://www.w3.org/2000/svg" width="32" height="32" fill="none"><path fill="#353434" d="M7.4027 27.9574a3.4355 3.4355 0 0 1-3.1418-2.2862 3.44 3.44 0 0 1-.1915-1.3538c-.016-2.8707 0-5.7414 0-8.612a.6666.6666 0 1 1 1.3333 0c0 2.9333-.0427 5.8666 0 8.8.0213 1.476 1.1307 2.1186 2.4507 2.1186h16.6173a2.066 2.066 0 0 0 1.9627-1.2906 4 4 0 0 0 .1333-1.4147v-8.2133a.666.666 0 0 1 .1953-.4714.6664.6664 0 0 1 .9428 0 .667.667 0 0 1 .1952.4714c0 2.9653.1134 5.9533 0 8.916a3.42 3.42 0 0 1-1.0822 2.4119 3.423 3.423 0 0 1-2.4778.9214z"/><path fill="#353434" d="M16.4493 4.2347a.613.613 0 0 0-.4147-.184.13.13 0 0 1-.0573-.008c-.0293-.0107-.036 0-.0547.008a.613.613 0 0 0-.416.184l-4.892 4.892a.667.667 0 0 0 .0082.9345.6666.6666 0 0 0 .9345.0082L15.312 6.316v14.3227a.6667.6667 0 1 0 1.3333 0V6.316L20.4 10.0694a.6668.6668 0 0 0 .9426-.9427z"/></svg>