<svg width="32" height="32" viewBox="0 0 32 32" fill="none" xmlns="http://www.w3.org/2000/svg">
<path d="M22.2298 15.33C22.3957 15.5138 22.4875 15.7525 22.4875 16C22.4875 16.2475 22.3957 16.4862 22.2298 16.67C21.1798 17.8 18.7898 20 15.9998 20C13.2098 20 10.8198 17.8 9.76985 16.67C9.60401 16.4862 9.51221 16.2475 9.51221 16C9.51221 15.7525 9.60401 15.5138 9.76985 15.33C10.8198 14.2 13.2098 12 15.9998 12C18.7898 12 21.1798 14.2 22.2298 15.33Z" stroke="#BABABA" stroke-linecap="round" stroke-linejoin="round"/>
<path d="M16 18C17.1046 18 18 17.1046 18 16C18 14.8954 17.1046 14 16 14C14.8954 14 14 14.8954 14 16C14 17.1046 14.8954 18 16 18Z" stroke="#BABABA" stroke-linecap="round" stroke-linejoin="round"/>
</svg>
