<svg xmlns="http://www.w3.org/2000/svg" width="32" height="32" fill="none"><g stroke="#353434" stroke-linecap="round" stroke-linejoin="round" stroke-width="1.5" clip-path="url(#a)"><path d="M6.244 18.2587v-8.1254a2.0333 2.0333 0 0 1 2.0332-2.04h2.032M6.2439 14.192h3.0493M13.5588 18.2587v-8.1254a2.033 2.033 0 0 1 1.2425-1.9256 2.0334 2.0334 0 0 1 2.8228 1.9256v8.1334M13.5586 14.192h4.0653M25.7559 16.2253a2.0326 2.0326 0 0 1-1.2425 1.9256 2.033 2.033 0 0 1-1.5803 0 2.033 2.033 0 0 1-1.2425-1.9256v-6.092a2.035 2.035 0 0 1 .5766-1.4713 2.034 2.034 0 0 1 2.2462-.4543 2.033 2.033 0 0 1 1.103 1.1317 2.03 2.03 0 0 1 .1395.7939zM23.7227 18.2587l2.0333 2.032"/><path d="M29.8974 3.1493H2.1028a1.436 1.436 0 0 0-1.436 1.436v18.52a1.436 1.436 0 0 0 1.436 1.436H5.428a10.64 10.64 0 0 1-1.8893 4.308c4.1573.06 6.7879-1.5493 8.3653-4.308h17.9933a1.436 1.436 0 0 0 1.436-1.436v-18.52a1.436 1.436 0 0 0-1.436-1.436"/></g><defs><clipPath id="a"><path fill="#fff" d="M0 0h32v32H0z"/></clipPath></defs></svg>