<svg xmlns="http://www.w3.org/2000/svg" width="32" height="32" fill="none"><g clip-path="url(#a)"><path stroke="#000" stroke-linecap="round" stroke-linejoin="round" d="M26.3354 9.962V3.4286a.667.667 0 0 0-.6667-.6666H23.002a.6666.6666 0 0 0-.6666.6666V6.282L16.786 1.1766a.6666.6666 0 0 0-.904 0L1.2154 14.938a.666.666 0 0 0-.1695.7338.667.667 0 0 0 .6228.4235H5.002V28.762a1.3334 1.3334 0 0 0 1.3334 1.3333h20a1.3336 1.3336 0 0 0 1.3333-1.3333V16.0953h3.3333a.6667.6667 0 0 0 .452-1.1573z"/></g><defs><clipPath id="a"><path fill="#fff" d="M0 0h32v31.0953H0z"/></clipPath></defs></svg>