<svg xmlns="http://www.w3.org/2000/svg" fill="none" viewBox="0 0 60 60">
  <path stroke="#353434" stroke-linecap="round" stroke-linejoin="round" stroke-width="1.5" d="M39.435 21.24v-6.736a.683.683 0 0 0-.204-.486.7.7 0 0 0-.492-.201h-2.782a.7.7 0 0 0-.492.201.683.683 0 0 0-.204.486v2.942l-5.79-5.264a.7.7 0 0 0-.943 0l-15.303 14.19a.686.686 0 0 0-.177.756.69.69 0 0 0 .65.437h3.478v13.06c0 .365.146.715.407.972a1.4 1.4 0 0 0 .984.403h20.868a1.4 1.4 0 0 0 .983-.403c.261-.258.408-.607.408-.972v-13.06h3.478a.702.702 0 0 0 .648-.438.68.68 0 0 0-.177-.756l-5.34-5.13Z"/>
</svg>
