<svg width="32" height="32" viewBox="0 0 32 32" fill="none" xmlns="http://www.w3.org/2000/svg">
<path d="M14.6667 24.6667H2.00008C1.64646 24.6667 1.30732 24.5262 1.05727 24.2761C0.807224 24.0261 0.666748 23.687 0.666748 23.3333V2.00001C0.666748 1.64638 0.807224 1.30724 1.05727 1.0572C1.30732 0.807148 1.64646 0.666672 2.00008 0.666672H22.0001C22.3537 0.666672 22.6928 0.807148 22.9429 1.0572C23.1929 1.30724 23.3334 1.64638 23.3334 2.00001V15.3333M20.9334 29.7333L15.3334 31.3333L16.9334 25.7333M20.9334 29.7333L30.5054 20.1613C30.7681 19.8987 30.9764 19.5869 31.1185 19.2437C31.2607 18.9006 31.3338 18.5328 31.3338 18.1613C31.3338 17.7899 31.2607 17.4221 31.1185 17.0789C30.9764 16.7358 30.7681 16.424 30.5054 16.1613C30.2428 15.8987 29.931 15.6904 29.5878 15.5482C29.2446 15.4061 28.8768 15.3329 28.5054 15.3329C28.134 15.3329 27.7662 15.4061 27.423 15.5482C27.0799 15.6904 26.7681 15.8987 26.5054 16.1613L16.9334 25.7333M20.9334 29.7333L16.9334 25.7333M25.3054 17.3613L29.3054 21.3613M8.00008 6H17.3334M5.33341 10H17.3334M5.33341 14H17.3334M5.33341 18H14.0001" stroke="currentColor" stroke-width="1.5" stroke-linecap="round" stroke-linejoin="round"/>
</svg>