<svg xmlns="http://www.w3.org/2000/svg" width="32" height="32" fill="none"><g stroke="#353434" stroke-width="1.5" clip-path="url(#a)"><path stroke-linecap="round" stroke-linejoin="round" d="M4.5 7.5v-2a1 1 0 0 1 1-1h2M27.5 7.5v-2a1 1 0 0 0-1-1h-2M4.5 24.5v2a1 1 0 0 0 1 1h2M27.5 24.5v2a1 1 0 0 1-1 1h-2M16 19.5c1.933 0 3.5-1.567 3.5-3.5s-1.567-3.5-3.5-3.5-3.5 1.567-3.5 3.5 1.567 3.5 3.5 3.5"/><path stroke-linecap="round" stroke-linejoin="round" d="M25.8571 16s-4.286 6-9.857 6-9.857-6-9.857-6 4.286-6 9.857-6 9.857 6 9.857 6"/><path d="M16 16.25a.25.25 0 1 1 0-.5M16 16.25a.25.25 0 1 0 0-.5"/></g><defs><clipPath id="a"><path fill="#fff" d="M4 4h24v24H4z"/></clipPath></defs></svg>