<svg xmlns="http://www.w3.org/2000/svg" width="24" height="24" fill="none" viewBox="0 0 24 24">
  <g stroke="currentColor" stroke-linecap="round" stroke-linejoin="round" stroke-width="1.2">
    <path d="M14.182 10.76 5.544 19.4a.667.667 0 0 1-.944 0 .667.667 0 0 1 0-.944L13.24 9.818"/>
    <path d="M19.406 9.279c.184 0 .243-.126.134-.272l-1.244-1.649.658-2.092c.055-.175-.043-.273-.218-.218l-2.095.658-1.648-1.245c-.146-.11-.267-.05-.272.134l-.042 2.338-2.006 1.161c-.159.092-.145.211.03.267l2.238.699.7 2.238c.054.175.173.189.266.03l1.16-2.007 2.339-.042Z"/>
  </g>
</svg>
