<svg xmlns="http://www.w3.org/2000/svg" width="32" height="32" fill="none"><path stroke="#353434" stroke-linecap="round" stroke-linejoin="round" stroke-width="1.5" d="M9.739 15.0994a5.3607 5.3607 0 0 0 5.3604 5.3604 5.3607 5.3607 0 0 0 5.3603-5.3604 5.36 5.36 0 0 0-5.3603-5.3603 5.3603 5.3603 0 0 0-5.3604 5.3603M18.8893 18.8893l3.3715 3.3714"/><path stroke="#353434" stroke-linecap="round" stroke-linejoin="round" stroke-width="1.5" d="M4 16a12 12 0 0 0 12 12 12 12 0 0 0 8.4853-3.5147A12 12 0 0 0 28 16a12 12 0 0 0-3.5147-8.4853A12 12 0 0 0 4 16"/></svg>