<svg xmlns="http://www.w3.org/2000/svg" width="24" height="24" fill="none"><path fill="#000" d="M21 12.75v3.75H3v-12h7.5V3H3a1.5 1.5 0 0 0-1.5 1.5v12A1.5 1.5 0 0 0 3 18h6v3H6v1.5h12V21h-3v-3h6a1.5 1.5 0 0 0 1.5-1.5v-3.75zM13.5 21h-3v-3h3z"/><path fill="#000" d="M22.5 7.5V6h-1.5758a3.75 3.75 0 0 0-.549-1.3147l1.1176-1.1175-1.0605-1.0606-1.1175 1.1176A3.75 3.75 0 0 0 18 3.0758V1.5h-1.5v1.5758a3.75 3.75 0 0 0-1.3148.549l-1.1175-1.1175-1.0604 1.0605 1.1175 1.1174A3.75 3.75 0 0 0 13.5757 6H12v1.5h1.5757a3.75 3.75 0 0 0 .5491 1.3148l-1.1175 1.1174 1.0604 1.0606 1.1175-1.1176a3.75 3.75 0 0 0 1.3148.549V12H18v-1.5758a3.75 3.75 0 0 0 1.3148-.549l1.1175 1.1176 1.0605-1.0606-1.1176-1.1174a3.75 3.75 0 0 0 .549-1.3148zM17.25 9a2.25 2.25 0 1 1 2.25-2.25A2.252 2.252 0 0 1 17.25 9"/></svg>