<svg xmlns="http://www.w3.org/2000/svg" width="32" height="32" fill="none"><g stroke="#353434" stroke-linecap="round" stroke-linejoin="round" stroke-width="1.5" clip-path="url(#a)"><path d="M27.0053 18H30a1.3336 1.3336 0 0 0 1.3333-1.3333v-1.3334A1.3336 1.3336 0 0 0 30 14h-2.996a15.74 15.74 0 0 0-1.3334-3.896l2.1187-2.1173a1.333 1.333 0 0 0 0-1.8854L25.8986 4.216a1.333 1.333 0 0 0-1.8853 0l-2.12 2.1187A15.7 15.7 0 0 0 18 5.0013V2A1.333 1.333 0 0 0 16.6666.6667h-1.3333A1.3333 1.3333 0 0 0 14 2v2.9987a15.7 15.7 0 0 0-3.8947 1.3333l-2.12-2.116a1.3333 1.3333 0 0 0-1.8853 0L4.2133 6.1027a1.3333 1.3333 0 0 0 0 1.8853l2.12 2.1187A15.76 15.76 0 0 0 5 14.0013H2a1.3335 1.3335 0 0 0-1.3334 1.3334v1.3333A1.3333 1.3333 0 0 0 2 18.0013h2.9946A15.76 15.76 0 0 0 6.328 21.896l-2.12 2.12a1.3333 1.3333 0 0 0 0 1.8853L6.1 27.7867a1.3335 1.3335 0 0 0 1.8853 0l2.1187-2.12A15.74 15.74 0 0 0 14 27v3a1.333 1.333 0 0 0 1.3333 1.3333h1.3333A1.333 1.333 0 0 0 18 30v-2.9933a15.74 15.74 0 0 0 3.8933-1.3334l2.1213 2.1187a1.3333 1.3333 0 0 0 1.8854 0l1.8853-1.8853a1.3335 1.3335 0 0 0 0-1.8854l-2.1187-2.12A15.76 15.76 0 0 0 27.0053 18"/><path d="M10 16.0013a6 6 0 0 0 6 6 5.9999 5.9999 0 1 0-6-6"/></g><defs><clipPath id="a"><path fill="#fff" d="M0 0h32v32H0z"/></clipPath></defs></svg>