<svg xmlns="http://www.w3.org/2000/svg" fill="none" viewBox="0 0 60 60">
  <g stroke="#353434" stroke-linecap="round" stroke-linejoin="round" stroke-width="1.5" clip-path="url(#a)">
    <path d="M34.364 27.521 17.088 44.8a1.335 1.335 0 1 1-1.888-1.888L32.48 25.636M44.812 24.559c.367 0 .486-.252.267-.544l-2.487-3.298 1.316-4.184c.11-.349-.086-.546-.436-.436l-4.19 1.316-3.296-2.49c-.292-.22-.534-.102-.544.266l-.084 4.678-4.012 2.321c-.318.184-.291.423.06.533l4.476 1.4 1.398 4.475c.11.35.348.377.534.06l2.32-4.013 4.678-.084Z"/>
  </g>
  <defs>
    <clipPath id="a">
      <path fill="#fff" d="M14 14h32v32H14z"/>
    </clipPath>
  </defs>
</svg>
