<svg xmlns="http://www.w3.org/2000/svg" width="32" height="32" fill="none"><g stroke="#353434" stroke-linecap="round" stroke-linejoin="round" stroke-width="1.5" clip-path="url(#a)"><path d="M20.3641 13.5213 3.0881 30.8a1.335 1.335 0 0 1-1.888 0 1.335 1.335 0 0 1 0-1.888l17.2787-17.276M30.812 10.5587c.3667 0 .4853-.252.2667-.544L28.592 6.7173l1.316-4.184c.1093-.3493-.0867-.5466-.436-.436l-4.1893 1.316L21.9853.9227c-.292-.22-.5333-.1014-.544.2666l-.084 4.6774-4.012 2.3213c-.3173.184-.2906.4227.06.5333l4.476 1.3987 1.3987 4.476c.1093.3507.348.3773.5333.06l2.32-4.0133z"/></g><defs><clipPath id="a"><path fill="#fff" d="M0 0h32v32H0z"/></clipPath></defs></svg>