<svg xmlns="http://www.w3.org/2000/svg" fill="none" viewBox="0 0 22 22">
  <g clip-path="url(#a)">
    <path stroke="#353434" stroke-linecap="round" stroke-linejoin="round" stroke-width="1.5" d="M8 7.556a2.666 2.666 0 1 1 3.341 2.577.858.858 0 0 0-.675.818v1.493M14.221 19.553h.889c1.719 0 3.11-.948 3.11-2.666V14.96"/>
    <path stroke="#353434" stroke-linecap="round" stroke-linejoin="round" stroke-width="1.5" d="M17.331 8a3.555 3.555 0 0 1 1.186 6.907.888.888 0 0 1-1.186-.837V8ZM4.002 8a3.555 3.555 0 0 0-1.186 6.907.888.888 0 0 0 1.186-.837V8Z"/>
    <path stroke="#353434" stroke-linecap="round" stroke-linejoin="round" stroke-width="1.5" d="M17.331 9.334V7.556a6.665 6.665 0 0 0-13.33 0v1.778M10.222 18.665h3.555a.444.444 0 0 1 .444.444v.889a.444.444 0 0 1-.444.444h-3.555a.889.889 0 0 1 0-1.777Z"/>
    <circle cx="10.667" cy="14.667" r=".667" fill="#353434"/>
  </g>
  <defs>
    <clipPath id="a">
      <path fill="#fff" d="M0 0h21.333v21.333H0z"/>
    </clipPath>
  </defs>
</svg>
