<svg xmlns="http://www.w3.org/2000/svg" width="14" height="15" fill="none"><path fill="#000" d="M8.948 4.2161a2.11 2.11 0 0 0 2.064-1.678h1.833a.425.425 0 0 0 .3895-.2621.425.425 0 0 0-.0895-.4609.43.43 0 0 0-.3-.124h-1.83A2.11 2.11 0 0 0 8.947 0a2.11 2.11 0 0 0-2.068 1.6911H.423a.424.424 0 0 0 0 .847h6.46a2.11 2.11 0 0 0 2.066 1.678m0-.88a1.2299 1.2299 0 0 1-.8697-2.0997 1.23 1.23 0 0 1 1.7394 0A1.23 1.23 0 0 1 8.949 3.336m-4.404 5.977a2.11 2.11 0 0 0 2.068-1.686l6.233-.007a.4251.4251 0 0 0 .3-.722.43.43 0 0 0-.3-.124l-6.233.006a2.11 2.11 0 0 0-4.133 0l-2.057-.006a.423.423 0 0 0 0 .846l2.057.007a2.11 2.11 0 0 0 2.065 1.686m.001-.88a1.23 1.23 0 1 1 0-2.46 1.23 1.23 0 0 1 0 2.46m4.398 5.938a2.11 2.11 0 0 0 2.068-1.694l1.833.026a.4248.4248 0 0 0 .4142-.506.424.424 0 0 0-.1142-.217.43.43 0 0 0-.3-.124l-1.836-.027a2.11 2.11 0 0 0-.7351-1.2046 2.1098 2.1098 0 0 0-3.3949 1.2046l-6.457.027a.4239.4239 0 0 0-.2864.7159.424.424 0 0 0 .2864.1311l6.454-.026a2.11 2.11 0 0 0 2.068 1.694m0-.88a1.2299 1.2299 0 1 1 0-2.4598 1.2299 1.2299 0 0 1 0 2.4598"/></svg>