<svg xmlns="http://www.w3.org/2000/svg" width="60" height="60" fill="none"><path stroke="#353434" stroke-linecap="round" stroke-linejoin="round" stroke-width="1.5" d="M42 42H26.5333c-2.9866 0-4.48 0-5.6213-.5813a5.334 5.334 0 0 1-2.3307-2.3307C18 37.9467 18 36.4533 18 33.4667V18"/><path stroke="#353434" stroke-linecap="round" stroke-linejoin="round" stroke-width="1.5" d="M25.9999 21.3333v3.7573m0 8.4854v3.7573m10.6667-18.6667v2.424m0 0c-1-.0333-2.6667.4574-2.6667 1.576v8c0 1.9667 5.3334 2.236 5.3334 0v-8c0-.984-1.6667-1.5426-2.6667-1.576m0 11.152v5.0907m-8-10.6667V32c0 1.9666-5.3333 2.236-5.3333 0v-5.3334c0-1.9666 5.3333-2.236 5.3333 0"/></svg>