<svg xmlns="http://www.w3.org/2000/svg" width="32" height="32" fill="none"><g stroke="#000" stroke-linecap="round" stroke-linejoin="round" clip-path="url(#a)"><path d="M15.3334 23.3333a8 8 0 1 0 15.9998.0002 8 8 0 0 0-15.9998-.0002M23.3334 19.3333v8M27.3334 23.3333h-8"/><path d="M14 31.3333H2A1.333 1.333 0 0 1 .6666 30V2A1.3333 1.3333 0 0 1 2 .6667h17.724c.3536 0 .6926.1406.9426.3906L25.6093 6c.2501.25.3906.589.3907.9427v4.3906"/></g><defs><clipPath id="a"><path fill="#fff" d="M0 0h32v32H0z"/></clipPath></defs></svg>