<svg width="32" height="32" viewBox="0 0 32 32" fill="none" xmlns="http://www.w3.org/2000/svg">
  <path d="M4 25.273v-1.09c0-2.026.805-3.969 2.237-5.401A7.635 7.635 0 0 1 11.636 16.5a7.635 7.635 0 0 1 5.4 2.282 7.635 7.635 0 0 1 2.237 5.4v1.09" stroke="currentColor" stroke-width="1.5" stroke-linecap="round"/>
  <path d="M17.09 18.727c0-1.447.575-2.834 1.598-3.857a5.455 5.455 0 0 1 7.713 0 5.454 5.454 0 0 1 1.598 3.857v.545" stroke="currentColor" stroke-width="1.5" stroke-linecap="round"/>
  <path d="M11.637 16.545a4.364 4.364 0 1 0 0-8.727 4.364 4.364 0 0 0 0 8.727zm10.909-3.273a3.273 3.273 0 1 0 0-6.545 3.273 3.273 0 0 0 0 6.545z" stroke="currentColor" stroke-width="1.5" stroke-linecap="round" stroke-linejoin="round"/>
</svg>
