<svg width="34" height="32" viewBox="0 0 34 32" fill="none" xmlns="http://www.w3.org/2000/svg">
<path d="M27.1846 9.99063V3.25414C27.1846 3.07183 27.1113 2.89699 26.9808 2.76808C26.8504 2.63917 26.6735 2.56675 26.489 2.56675H23.7066C23.5221 2.56675 23.3452 2.63917 23.2148 2.76808C23.0843 2.89699 23.011 3.07183 23.011 3.25414V6.1962L17.2209 0.932118C17.0924 0.815017 16.9241 0.75 16.7493 0.75C16.5745 0.75 16.4062 0.815017 16.2777 0.932118L0.974692 15.1214C0.871484 15.2152 0.799377 15.3376 0.76783 15.4726C0.736284 15.6077 0.746771 15.749 0.797915 15.878C0.84906 16.007 0.938474 16.1178 1.05443 16.1957C1.17038 16.2736 1.30747 16.3151 1.44769 16.3147H4.92565V29.3752C4.92565 29.7398 5.07222 30.0895 5.33312 30.3473C5.59401 30.6052 5.94787 30.75 6.31683 30.75H27.1846C27.5535 30.75 27.9074 30.6052 28.1683 30.3473C28.4292 30.0895 28.5757 29.7398 28.5757 29.3752V16.3147H32.0537C32.1938 16.3148 32.3307 16.2731 32.4464 16.1951C32.5622 16.1171 32.6514 16.0063 32.7023 15.8773C32.7533 15.7484 32.7637 15.6072 32.7321 15.4723C32.7005 15.3374 32.6284 15.2151 32.5253 15.1214L27.1846 9.99063Z" stroke="#353434" stroke-width="1.5" stroke-linecap="round" stroke-linejoin="round"/>
</svg>
