<svg width="26" height="26" viewBox="0 0 26 26" fill="none" xmlns="http://www.w3.org/2000/svg">
<path d="M24.75 24.75H9.28333C6.29667 24.75 4.80333 24.75 3.662 24.1687C2.65851 23.6573 1.84265 22.8415 1.33133 21.838C0.75 20.6967 0.75 19.2033 0.75 16.2167V0.75" stroke="#353434" stroke-width="1.5" stroke-linecap="round" stroke-linejoin="round"/>
<path d="M8.75016 4.08329V7.84063M8.75016 16.326V20.0833M19.4168 1.41663V3.84063M19.4168 3.84063C18.4168 3.80729 16.7502 4.29796 16.7502 5.41663V13.4166C16.7502 15.3833 22.0835 15.6526 22.0835 13.4166V5.41663C22.0835 4.43263 20.4168 3.87396 19.4168 3.84063ZM19.4168 14.9926V20.0833M11.4168 9.41663V14.75C11.4168 16.7166 6.0835 16.986 6.0835 14.75V9.41663C6.0835 7.44996 11.4168 7.18063 11.4168 9.41663Z" stroke="#353434" stroke-width="1.5" stroke-linecap="round" stroke-linejoin="round"/>
</svg>
